<svg width="26" height="20" viewBox="0 0 26 20" fill="none" xmlns="http://www.w3.org/2000/svg">
	<g clip-path="url(#clip0)">
		<path
			d="M26 2.13333C26 2.72244 24.9087 3.2 23.5625 3.2L2.4375 3.2C1.0913 3.2 -1.16876e-07 2.72244 -9.15858e-08 2.13333L-4.57929e-08 1.06667C-2.05022e-08 0.477562 1.0913 -1.10859e-06 2.4375 -1.04868e-06L23.5625 -1.08484e-07C24.9087 -4.85698e-08 26 0.477563 26 1.06667L26 2.13333Z"
			fill="#C6CAD2" />
		<path
			d="M26 10.5454C26 11.1345 24.9087 11.6121 23.5625 11.6121L2.4375 11.6121C1.0913 11.6121 -1.16876e-07 11.1345 -9.15857e-08 10.5454L-4.57929e-08 9.47878C-2.05022e-08 8.88967 1.0913 8.41211 2.4375 8.41211L23.5625 8.41211C24.9087 8.41211 26 8.88967 26 9.47878L26 10.5454Z"
			fill="#C6CAD2" />
		<path
			d="M26 18.5212C26 19.1103 24.9087 19.5879 23.5625 19.5879L2.4375 19.5879C1.0913 19.5879 -1.16876e-07 19.1103 -9.15857e-08 18.5212L-4.57929e-08 17.4545C-2.05022e-08 16.8654 1.0913 16.3879 2.4375 16.3879L23.5625 16.3879C24.9087 16.3879 26 16.8654 26 17.4545L26 18.5212Z"
			fill="#C6CAD2" />
	</g>
	<defs>
		<clipPath id="clip0">
			<rect width="26" height="20" fill="white" />
		</clipPath>
	</defs>
</svg>
