<svg width="18" height="20" viewBox="0 0 18 20" fill="none" xmlns="http://www.w3.org/2000/svg">
	<path
		d="M16.0714 9.37501H5.14286V5.67189C5.14286 3.60939 6.83437 1.89455 8.95982 1.87502C11.1054 1.85158 12.8571 3.54298 12.8571 5.62501V6.56251C12.8571 7.08204 13.2871 7.50001 13.8214 7.50001C14.3558 7.50001 14.7857 7.08204 14.7857 6.56251V5.6797C14.7857 2.57033 12.2143 0.00783056 9.01205 1.80638e-05C5.81786 -0.00779443 3.21429 2.51955 3.21429 5.62501V9.37501H1.92857C0.863839 9.37501 0 10.2149 0 11.25V18.125C0 19.1602 0.863839 20 1.92857 20H16.0714C17.1362 20 18 19.1602 18 18.125V11.25C18 10.2149 17.1362 9.37501 16.0714 9.37501ZM16.0714 18.125H1.92857V11.25H16.0714V18.125Z"
		fill="url(#paint0_linear)" />
	<defs>
		<linearGradient id="paint0_linear" x1="-6.70552e-08" y1="10" x2="18" y2="10" gradientUnits="userSpaceOnUse">
			<stop stop-color="#55DAFB" />
			<stop offset="1" stop-color="#55BEFB" />
		</linearGradient>
	</defs>
</svg>
