<svg width="24" height="24" viewBox="0 0 24 24" fill="none" xmlns="http://www.w3.org/2000/svg">
	<path
		d="M16.0714 9.37501H5.14286V5.67189C5.14286 3.60939 6.83437 1.89455 8.95982 1.87502C11.1054 1.85158 12.8571 3.54298 12.8571 5.62501V6.56251C12.8571 7.08204 13.2871 7.50001 13.8214 7.50001C14.3558 7.50001 14.7857 7.08204 14.7857 6.56251V5.6797C14.7857 2.57033 12.2143 0.00783056 9.01205 1.80638e-05C5.81786 -0.00779443 3.21429 2.51955 3.21429 5.62501V9.37501H1.92857C0.863839 9.37501 0 10.2149 0 11.25V18.125C0 19.1602 0.863839 20 1.92857 20H16.0714C17.1362 20 18 19.1602 18 18.125V11.25C18 10.2149 17.1362 9.37501 16.0714 9.37501ZM16.0714 18.125H1.92857V11.25H16.0714V18.125Z"
		fill="url(#paint0_linear)" />
	<mask id="path-2-outside-1" maskUnits="userSpaceOnUse" x="5" y="8" width="19" height="16" fill="black">
		<rect fill="white" x="5" y="8" width="19" height="16" />
		<path
			d="M12.4154 20.8036L8.19037 16.4453C7.93654 16.1835 7.93654 15.759 8.19037 15.4971L9.10959 14.5489C9.36342 14.287 9.775 14.287 10.0288 14.5489L12.875 17.4848L18.9712 11.1964C19.225 10.9345 19.6366 10.9345 19.8904 11.1964L20.8096 12.1446C21.0635 12.4064 21.0635 12.831 20.8096 13.0928L13.3346 20.8036C13.0808 21.0655 12.6692 21.0655 12.4154 20.8036Z" />
	</mask>
	<path
		d="M12.4154 20.8036L8.19037 16.4453C7.93654 16.1835 7.93654 15.759 8.19037 15.4971L9.10959 14.5489C9.36342 14.287 9.775 14.287 10.0288 14.5489L12.875 17.4848L18.9712 11.1964C19.225 10.9345 19.6366 10.9345 19.8904 11.1964L20.8096 12.1446C21.0635 12.4064 21.0635 12.831 20.8096 13.0928L13.3346 20.8036C13.0808 21.0655 12.6692 21.0655 12.4154 20.8036Z"
		fill="url(#paint1_linear)" />
	<path
		d="M8.19037 16.4453L9.98537 14.7052L8.19037 16.4453ZM8.19037 15.4971L6.39535 13.757L6.39529 13.7571L8.19037 15.4971ZM9.10959 14.5489L10.9046 16.289L10.9047 16.2889L9.10959 14.5489ZM10.0288 14.5489L8.23375 16.2889L8.23385 16.289L10.0288 14.5489ZM12.875 17.4848L11.08 19.2249L12.875 21.0765L14.67 19.2249L12.875 17.4848ZM18.9712 11.1964L20.7662 12.9365L20.7662 12.9365L18.9712 11.1964ZM19.8904 11.1964L21.6854 9.45629L21.6854 9.45626L19.8904 11.1964ZM20.8096 12.1446L19.0146 13.8847L19.0146 13.8847L20.8096 12.1446ZM20.8096 13.0928L22.6046 14.833L22.6047 14.8329L20.8096 13.0928ZM13.3346 20.8036L15.1295 22.5438L15.1296 22.5437L13.3346 20.8036ZM14.2104 19.0635L9.98537 14.7052L6.39538 18.1855L10.6204 22.5437L14.2104 19.0635ZM9.98537 14.7052C10.6716 15.4131 10.6715 16.5294 9.98545 17.2371L6.39529 13.7571C5.20162 14.9885 5.20149 16.9539 6.39538 18.1855L9.98537 14.7052ZM9.98539 17.2372L10.9046 16.289L7.31457 12.8088L6.39535 13.757L9.98539 17.2372ZM10.9047 16.2889C10.1763 17.0403 8.96214 17.0403 8.23375 16.2889L11.8239 12.8089C10.5879 11.5337 8.55056 11.5337 7.31451 12.8089L10.9047 16.2889ZM8.23385 16.289L11.08 19.2249L14.67 15.7447L11.8238 12.8088L8.23385 16.289ZM14.67 19.2249L20.7662 12.9365L17.1762 9.45626L11.08 15.7447L14.67 19.2249ZM20.7662 12.9365C20.0378 13.6878 18.8238 13.6878 18.0954 12.9365L21.6854 9.45626C20.4494 8.18125 18.4122 8.18125 17.1762 9.45626L20.7662 12.9365ZM18.0954 12.9365L19.0146 13.8847L22.6046 10.4045L21.6854 9.45629L18.0954 12.9365ZM19.0146 13.8847C18.3284 13.1769 18.3285 12.0605 19.0145 11.3528L22.6047 14.8329C23.7984 13.6014 23.7985 11.636 22.6046 10.4045L19.0146 13.8847ZM19.0146 11.3527L11.5396 19.0635L15.1296 22.5437L22.6046 14.833L19.0146 11.3527ZM11.5397 19.0634C12.268 18.3122 13.482 18.3121 14.2105 19.0636L10.6203 22.5436C11.8564 23.8188 13.8935 23.8187 15.1295 22.5438L11.5397 19.0634Z"
		fill="white" mask="url(#path-2-outside-1)" />
	<defs>
		<linearGradient id="paint0_linear" x1="-6.70552e-08" y1="10" x2="18" y2="10" gradientUnits="userSpaceOnUse">
			<stop stop-color="#55DAFB" />
			<stop offset="1" stop-color="#55BEFB" />
		</linearGradient>
		<linearGradient id="paint1_linear" x1="8" y1="16" x2="21" y2="16" gradientUnits="userSpaceOnUse">
			<stop stop-color="#55DAFB" />
			<stop offset="1" stop-color="#55BEFB" />
		</linearGradient>
	</defs>
</svg>
