<svg width="48" height="44" viewBox="0 0 48 44" fill="none" xmlns="http://www.w3.org/2000/svg">
	<path fill-rule="evenodd" clip-rule="evenodd"
		d="M12.9253 -1.55082e-05C13.7506 -0.00792271 14.3343 0.326336 14.6958 0.981915C15.0289 1.58772 14.7333 2.07444 14.4374 2.5617L14.3846 2.6489C14.0341 3.2295 13.5284 3.65822 13.0214 4.08807C12.5924 4.45172 12.1625 4.81618 11.8248 5.27409C11.5703 5.61841 11.0226 5.55516 10.7839 5.15476C10.1248 4.04919 10.1046 2.84945 10.6107 1.69931C11.0564 0.690787 12.0994 0.0078917 12.9253 -1.55082e-05ZM31.7819 38.5016C29.8672 38.5913 28.0885 37.8552 26.3372 37.1305C26.2219 37.0828 26.1067 37.0351 25.9917 36.9877C22.8468 35.6938 19.8686 36.2883 16.9394 37.5484C16.8443 37.5893 16.7496 37.6305 16.6551 37.6717C15.4506 38.1955 14.2796 38.7049 12.9139 38.4003C10.7768 37.9237 9.39157 36.0166 9.28087 33.3821C9.27411 33.222 9.26862 33.0619 9.26314 32.902C9.23828 32.1772 9.21348 31.4542 9.07097 30.7346C8.87904 29.7641 8.42401 29.0245 7.48953 28.6413C7.03328 28.4538 6.57249 28.2768 6.11162 28.0997C5.58497 27.8973 5.0582 27.6949 4.53798 27.4768C3.92805 27.2298 3.3364 26.9399 2.76749 26.6092C1.22127 25.6826 0.840286 24.3592 1.59363 22.7217C2.08711 21.6541 2.81607 20.7593 3.54569 19.8636L3.54573 19.8636L3.54575 19.8636C3.77263 19.5851 3.99958 19.3065 4.21954 19.0226C5.44587 17.4411 5.44156 16.7877 4.23967 15.2228C2.51446 12.9743 2.92491 11.1621 5.45594 9.70858C7.10926 8.75756 8.92073 8.37658 10.7868 8.24503C11.7537 8.17746 12.5839 7.88561 13.246 7.1984C16.2385 4.08727 19.7407 3.99742 23.5189 5.42C24.4577 5.77039 25.3265 6.28548 26.0844 6.94106C27.2935 7.9805 28.619 8.05741 29.9438 7.15096C30.4319 6.81685 30.8463 6.50942 31.2312 6.22378C32.2997 5.43087 33.1419 4.80593 34.7083 4.2447C36.4666 3.61428 38.5289 3.16644 40.5273 3.7753C42.5256 4.38415 43.6901 7.50175 42.7348 9.87391C41.9736 11.7609 41.2253 12.6177 39.7107 13.9418C37.9545 15.4751 38.4527 17.536 39.7495 18.9075C40.2562 19.4446 40.8245 19.9168 41.393 20.3893L41.3931 20.3893C42.2102 21.0683 43.028 21.7478 43.6643 22.6211L43.6915 22.6584C44.1559 23.296 44.6125 23.9229 44.8381 24.6985C45.2055 25.9601 44.7526 27.1735 43.6334 27.898C43.1917 28.1848 42.7182 28.4176 42.2446 28.6504C41.5619 28.986 40.879 29.3217 40.2908 29.8195C39.3764 30.5944 38.7747 31.457 38.7215 32.7861C38.5785 36.394 35.9648 38.5016 31.7819 38.5016ZM20.4746 25.5784C20.4746 25.5784 20.3898 23.6238 20.4983 22.6642C20.6119 21.6628 21.5313 21.2862 21.8713 21.688C21.9145 21.739 21.9539 21.7874 21.9903 21.8321C22.241 22.1394 22.3532 22.277 22.6074 21.9676C22.8985 21.6132 23.3399 21.6801 23.5131 22.1243C23.631 22.4464 23.8452 22.3263 24.232 22.0726C24.8674 21.747 25.4834 22.7195 25.2297 23.667C25.012 24.4794 24.7015 25.5655 24.4413 26.4759L24.4412 26.4762C24.2237 27.237 24.0413 27.8751 23.9775 28.1281C23.9676 28.1616 23.9514 28.2047 23.9329 28.2539L23.9329 28.2539C23.8323 28.5211 23.6639 28.9686 24.0803 29.0475L24.2636 29.0865C24.7405 29.1884 24.9019 29.2229 25.6028 29.3206C26.3789 29.4289 26.4815 29.0405 26.7998 27.835L26.809 27.8003C27.1346 26.5675 27.5515 25.5144 28.4422 24.6892C29.6692 23.5527 30.3191 22.1481 30.6203 20.5515C30.8927 19.1045 30.5182 17.27 28.555 16.7791C28.5095 16.7676 28.4623 16.7562 28.414 16.7446L28.4136 16.7444C27.8579 16.6104 27.1633 16.4428 27.1785 15.7102C27.1926 15.0602 27.715 14.9558 28.2171 14.8553C28.3553 14.8277 28.492 14.8003 28.6161 14.762C29.4155 14.514 29.6771 13.9792 29.2566 13.2661C29.0288 12.8794 28.7391 12.484 28.3811 12.226C25.321 10.022 21.0489 10.3929 18.2922 12.9908C15.5355 15.5887 14.7376 20.0354 16.631 23.493C17.0903 24.3319 17.4109 25.1945 17.3541 26.1879C17.2556 27.9038 17.4102 28.0641 19.1045 28.3322C19.6875 28.4218 19.6338 28.404 19.6062 28.3949C19.5878 28.3888 19.5811 28.3865 19.7838 28.4228C20.2899 28.5134 20.4516 28.4063 20.4307 27.898C20.4041 27.1253 20.4746 25.5784 20.4746 25.5784ZM24.8228 31.6058C25.4223 31.6187 25.9464 31.5174 26.0499 30.8151C26.1536 30.1088 25.62 30.019 25.161 29.9418C25.1239 29.9356 25.0872 29.9294 25.0514 29.923C23.3133 29.6089 18.4539 28.9598 17.771 28.9511C17.3822 28.9461 17.0421 29.0604 17.0026 29.5636C16.9667 30.0244 17.1054 30.345 17.5604 30.4981C18.451 30.8344 20.7682 31.1112 22.817 31.3559C23.5448 31.4428 24.2387 31.5257 24.8228 31.6058ZM21.5715 22.3278C21.3106 22.3652 21.2962 22.8001 21.2948 22.9258C21.2804 24.6712 21.2756 26.4163 21.2804 28.1611C21.2804 28.6567 21.5992 28.6871 21.9175 28.7174C22.0254 28.7277 22.1332 28.738 22.2286 28.7664C22.644 28.89 22.8755 28.7384 23.0006 28.3351C23.1123 27.9662 23.2291 27.5989 23.3458 27.2316L23.3459 27.2312L23.3459 27.2312L23.3459 27.2312L23.3459 27.2311L23.3459 27.2311L23.3459 27.2311L23.3459 27.2311L23.3459 27.2311L23.3459 27.231L23.346 27.231L23.346 27.231L23.346 27.231C23.5062 26.7267 23.6664 26.2226 23.8136 25.7149L23.8487 25.5941L23.8487 25.5941C24.0993 24.7318 24.6141 22.9608 24.3168 22.7799C24.1899 22.7027 24.0473 22.8343 23.9005 22.9697C23.6863 23.1672 23.4632 23.3731 23.2666 22.9517C22.9864 22.2745 22.7881 22.5079 22.4731 22.8789L22.4356 22.923C22.0494 23.2235 21.9633 22.9675 21.8746 22.7039C21.8113 22.5161 21.7468 22.3245 21.5715 22.3278ZM17.8084 31.4894C17.8084 31.4894 17.1665 31.6022 17.0982 31.9925C17.0213 32.4303 17.3333 32.6301 17.6632 32.7308C18.126 32.8743 18.6014 32.9737 19.0829 33.0277C19.7267 33.0952 20.3653 33.2029 21.0038 33.3106C21.9687 33.4733 22.9336 33.636 23.9164 33.6602C24.352 33.671 24.7344 33.5754 24.8272 33.0794C24.9037 32.667 24.6118 32.5557 24.3261 32.4468L24.3258 32.4467C24.2869 32.4319 24.2481 32.4171 24.2104 32.4016C22.2595 31.8545 17.8084 31.4894 17.8084 31.4894ZM12.2684 16.6295C12.5961 16.6295 12.9297 16.59 13.003 16.1982C13.0835 15.7713 12.7744 15.5836 12.4279 15.4744C11.3835 15.143 10.3059 15.0833 9.22192 15.1408C9.04761 15.1438 8.88013 15.2092 8.74994 15.3251C8.61974 15.4411 8.53547 15.5999 8.51243 15.7727C8.46858 16.1451 8.73886 16.4283 9.11697 16.4807C9.70929 16.5649 11.8119 16.631 12.2684 16.6295ZM36.2214 9.96377C35.4537 9.94077 33.0399 12.0484 32.9723 12.7996C32.9363 13.205 33.1218 13.3747 33.5294 13.3452C33.9128 13.3164 34.2204 12.9878 34.5827 12.6007C34.7543 12.4173 34.9382 12.2208 35.1482 12.0369C35.1482 12.0369 35.8462 11.4748 36.4622 10.9673C36.6987 10.7725 36.8253 10.5166 36.721 10.2082C36.6441 9.98296 36.4333 9.97339 36.2324 9.96427L36.2214 9.96377ZM34.8521 20.2935C33.8148 20.2935 33.4388 20.4875 33.3727 20.7413C33.2799 21.0926 33.6192 21.1692 33.8359 21.2181L33.8507 21.2215C34.8528 21.4376 35.8606 21.6279 36.8741 21.7922C37.2249 21.8497 37.6562 21.7498 37.7044 21.3681C37.7482 21.0216 37.5606 20.7722 37.0776 20.5889C36.5945 20.4056 35.8929 20.2963 34.8521 20.2963V20.2935ZM17.1313 10.8458C16.9863 10.1242 16.7189 9.43276 16.3406 8.80141C16.1637 8.51387 15.887 8.3392 15.5498 8.49159C15.1703 8.66124 15.1042 9.01203 15.2623 9.35419C15.5549 9.99684 15.8827 10.6237 16.2176 11.2455C16.3384 11.4697 16.5289 11.7278 16.8301 11.5768C17.1313 11.4259 17.1313 11.2002 17.1313 10.8458ZM42.7571 31.2198C42.8419 31.2323 42.9431 31.242 43.0573 31.2529C43.7175 31.3159 44.8123 31.4204 45.6856 32.3563C46.3407 33.0703 46.8096 33.9349 47.0508 34.8734C47.292 35.8119 47.2982 36.7953 47.0687 37.7368C46.7567 39.4246 45.9566 39.8005 44.9539 39.9393C43.9849 40.0708 42.8843 39.4649 42.356 38.4678C41.9311 37.654 41.6975 36.7539 41.6731 35.8362L41.6682 35.6895L41.663 35.5323L41.6629 35.5293C41.6274 34.4352 41.592 33.3473 41.3403 32.2678C41.1785 31.5706 41.6867 31.1953 42.7571 31.2198ZM17.6273 42.0994C18.6214 42.9526 20.0792 43.0856 21.092 43.0856C22.1049 43.0856 23.0976 42.9526 23.9746 42.4207C25.2807 41.6314 25.3878 40.0593 24.1061 39.2722C22.3917 38.2184 19.9189 37.8187 17.9148 38.9926C16.6065 39.7603 16.4771 41.116 17.6273 42.0994ZM3.7149 35.0016C2.05007 34.9894 1.13355 33.5014 1.89552 32.0364C2.53385 30.8086 3.65236 30.3371 4.93117 30.0553C7.3824 29.5161 7.36228 30.5117 6.83609 32.219C6.2833 34.0161 5.23308 35.0131 3.7149 35.0016ZM41.6853 15.9804C42.5098 16.3341 43.3882 16.4541 44.2839 16.4383C45.2378 16.4405 45.9048 16.324 46.4591 16.0588C47.4295 15.5937 47.7738 14.9129 47.5524 13.8987C47.3943 13.177 46.5115 12.5099 45.6489 12.5961C44.07 12.7415 42.5773 13.3815 41.3834 14.4249C40.6789 15.0387 40.8004 15.5994 41.6853 15.9804ZM28.9468 6.3142C29.202 6.22506 29.4694 5.51844 29.4694 4.1239C29.4636 3.35402 29.1854 1.82218 28.6104 1.16588C27.9037 0.359349 26.4661 0.133635 25.7472 0.715174C25.1398 1.2047 25.0722 2.10469 25.7343 2.85228C26.5997 3.83415 27.412 4.86164 28.1676 5.93034C28.325 6.15246 28.6592 6.41411 28.9468 6.3142ZM34.699 0.149494C35.2963 0.101332 35.8728 0.256601 36.0454 0.965374C36.2215 1.69068 35.8009 2.17015 35.1827 2.45265C34.3561 2.83076 33.5201 3.19664 32.6668 3.50143C31.8135 3.80622 31.4189 3.40367 31.6051 2.50656C31.8926 1.10555 33.1333 0.143743 34.699 0.149494ZM4.09588 17.1356C4.08006 16.3096 3.0284 15.6404 1.71293 15.6196C0.698656 15.6037 0.00426123 16.0775 0.000667052 16.787C-0.0043648 17.6884 1.01494 18.592 2.06229 18.615C3.06147 18.6373 4.11025 17.8746 4.09588 17.1356ZM32.1996 42.903C32.1945 43.8267 31.3283 44.3069 30.5081 43.785C29.3645 43.0569 29.0187 41.8118 28.6859 40.6128C28.5536 40.1398 29.0338 40.0312 29.4313 40.0463C30.8819 40.0995 32.2067 41.4725 32.1996 42.903ZM7.276 38.6547C8.01281 38.664 8.493 38.0077 8.48725 37.0014C8.48365 36.2653 8.02575 35.5932 7.51682 35.5831C7.00788 35.573 6.2114 36.7505 6.25741 37.529C6.29335 38.1429 6.53919 38.6453 7.276 38.6547ZM8.03583 7.13727C7.67641 7.13727 6.21933 6.73472 6.19776 5.74776C6.1762 4.7608 7.23864 4.40497 7.8856 4.75217C8.53255 5.09937 9.18598 5.88578 9.20466 6.51117C9.22335 7.13655 8.39813 7.13727 8.03583 7.13727ZM43.8533 19.8233C44.2321 19.8672 45.0933 19.8506 45.2076 19.1174C45.3959 17.7567 44.0977 17.7775 43.3861 17.9242C42.6744 18.0708 42.3186 18.4475 42.6406 19.0405C42.9627 19.6335 43.4939 19.7816 43.8533 19.8233Z"
		fill="#55BEFB" />
	<path fill-rule="evenodd" clip-rule="evenodd"
		d="M12.9253 -1.55082e-05C13.7506 -0.00792271 14.3343 0.326336 14.6958 0.981915C15.0289 1.58772 14.7333 2.07444 14.4374 2.5617L14.3846 2.6489C14.0341 3.2295 13.5284 3.65822 13.0214 4.08807C12.5924 4.45172 12.1625 4.81618 11.8248 5.27409C11.5703 5.61841 11.0226 5.55516 10.7839 5.15476C10.1248 4.04919 10.1046 2.84945 10.6107 1.69931C11.0564 0.690787 12.0994 0.0078917 12.9253 -1.55082e-05ZM31.7819 38.5016C29.8672 38.5913 28.0885 37.8552 26.3372 37.1305C26.2219 37.0828 26.1067 37.0351 25.9917 36.9877C22.8468 35.6938 19.8686 36.2883 16.9394 37.5484C16.8443 37.5893 16.7496 37.6305 16.6551 37.6717C15.4506 38.1955 14.2796 38.7049 12.9139 38.4003C10.7768 37.9237 9.39157 36.0166 9.28087 33.3821C9.27411 33.222 9.26862 33.0619 9.26314 32.902C9.23828 32.1772 9.21348 31.4542 9.07097 30.7346C8.87904 29.7641 8.42401 29.0245 7.48953 28.6413C7.03328 28.4538 6.57249 28.2768 6.11162 28.0997C5.58497 27.8973 5.0582 27.6949 4.53798 27.4768C3.92805 27.2298 3.3364 26.9399 2.76749 26.6092C1.22127 25.6826 0.840286 24.3592 1.59363 22.7217C2.08711 21.6541 2.81607 20.7593 3.54569 19.8636L3.54573 19.8636L3.54575 19.8636C3.77263 19.5851 3.99958 19.3065 4.21954 19.0226C5.44587 17.4411 5.44156 16.7877 4.23967 15.2228C2.51446 12.9743 2.92491 11.1621 5.45594 9.70858C7.10926 8.75756 8.92073 8.37658 10.7868 8.24503C11.7537 8.17746 12.5839 7.88561 13.246 7.1984C16.2385 4.08727 19.7407 3.99742 23.5189 5.42C24.4577 5.77039 25.3265 6.28548 26.0844 6.94106C27.2935 7.9805 28.619 8.05741 29.9438 7.15096C30.4319 6.81685 30.8463 6.50942 31.2312 6.22378C32.2997 5.43087 33.1419 4.80593 34.7083 4.2447C36.4666 3.61428 38.5289 3.16644 40.5273 3.7753C42.5256 4.38415 43.6901 7.50175 42.7348 9.87391C41.9736 11.7609 41.2253 12.6177 39.7107 13.9418C37.9545 15.4751 38.4527 17.536 39.7495 18.9075C40.2562 19.4446 40.8245 19.9168 41.393 20.3893L41.3931 20.3893C42.2102 21.0683 43.028 21.7478 43.6643 22.6211L43.6915 22.6584C44.1559 23.296 44.6125 23.9229 44.8381 24.6985C45.2055 25.9601 44.7526 27.1735 43.6334 27.898C43.1917 28.1848 42.7182 28.4176 42.2446 28.6504C41.5619 28.986 40.879 29.3217 40.2908 29.8195C39.3764 30.5944 38.7747 31.457 38.7215 32.7861C38.5785 36.394 35.9648 38.5016 31.7819 38.5016ZM20.4746 25.5784C20.4746 25.5784 20.3898 23.6238 20.4983 22.6642C20.6119 21.6628 21.5313 21.2862 21.8713 21.688C21.9145 21.739 21.9539 21.7874 21.9903 21.8321C22.241 22.1394 22.3532 22.277 22.6074 21.9676C22.8985 21.6132 23.3399 21.6801 23.5131 22.1243C23.631 22.4464 23.8452 22.3263 24.232 22.0726C24.8674 21.747 25.4834 22.7195 25.2297 23.667C25.012 24.4794 24.7015 25.5655 24.4413 26.4759L24.4412 26.4762C24.2237 27.237 24.0413 27.8751 23.9775 28.1281C23.9676 28.1616 23.9514 28.2047 23.9329 28.2539L23.9329 28.2539C23.8323 28.5211 23.6639 28.9686 24.0803 29.0475L24.2636 29.0865C24.7405 29.1884 24.9019 29.2229 25.6028 29.3206C26.3789 29.4289 26.4815 29.0405 26.7998 27.835L26.809 27.8003C27.1346 26.5675 27.5515 25.5144 28.4422 24.6892C29.6692 23.5527 30.3191 22.1481 30.6203 20.5515C30.8927 19.1045 30.5182 17.27 28.555 16.7791C28.5095 16.7676 28.4623 16.7562 28.414 16.7446L28.4136 16.7444C27.8579 16.6104 27.1633 16.4428 27.1785 15.7102C27.1926 15.0602 27.715 14.9558 28.2171 14.8553C28.3553 14.8277 28.492 14.8003 28.6161 14.762C29.4155 14.514 29.6771 13.9792 29.2566 13.2661C29.0288 12.8794 28.7391 12.484 28.3811 12.226C25.321 10.022 21.0489 10.3929 18.2922 12.9908C15.5355 15.5887 14.7376 20.0354 16.631 23.493C17.0903 24.3319 17.4109 25.1945 17.3541 26.1879C17.2556 27.9038 17.4102 28.0641 19.1045 28.3322C19.6875 28.4218 19.6338 28.404 19.6062 28.3949C19.5878 28.3888 19.5811 28.3865 19.7838 28.4228C20.2899 28.5134 20.4516 28.4063 20.4307 27.898C20.4041 27.1253 20.4746 25.5784 20.4746 25.5784ZM24.8228 31.6058C25.4223 31.6187 25.9464 31.5174 26.0499 30.8151C26.1536 30.1088 25.62 30.019 25.161 29.9418C25.1239 29.9356 25.0872 29.9294 25.0514 29.923C23.3133 29.6089 18.4539 28.9598 17.771 28.9511C17.3822 28.9461 17.0421 29.0604 17.0026 29.5636C16.9667 30.0244 17.1054 30.345 17.5604 30.4981C18.451 30.8344 20.7682 31.1112 22.817 31.3559C23.5448 31.4428 24.2387 31.5257 24.8228 31.6058ZM21.5715 22.3278C21.3106 22.3652 21.2962 22.8001 21.2948 22.9258C21.2804 24.6712 21.2756 26.4163 21.2804 28.1611C21.2804 28.6567 21.5992 28.6871 21.9175 28.7174C22.0254 28.7277 22.1332 28.738 22.2286 28.7664C22.644 28.89 22.8755 28.7384 23.0006 28.3351C23.1123 27.9662 23.2291 27.5989 23.3458 27.2316L23.3459 27.2312L23.3459 27.2312L23.3459 27.2312L23.3459 27.2311L23.3459 27.2311L23.3459 27.2311L23.3459 27.2311L23.3459 27.2311L23.3459 27.231L23.346 27.231L23.346 27.231L23.346 27.231C23.5062 26.7267 23.6664 26.2226 23.8136 25.7149L23.8487 25.5941L23.8487 25.5941C24.0993 24.7318 24.6141 22.9608 24.3168 22.7799C24.1899 22.7027 24.0473 22.8343 23.9005 22.9697C23.6863 23.1672 23.4632 23.3731 23.2666 22.9517C22.9864 22.2745 22.7881 22.5079 22.4731 22.8789L22.4356 22.923C22.0494 23.2235 21.9633 22.9675 21.8746 22.7039C21.8113 22.5161 21.7468 22.3245 21.5715 22.3278ZM17.8084 31.4894C17.8084 31.4894 17.1665 31.6022 17.0982 31.9925C17.0213 32.4303 17.3333 32.6301 17.6632 32.7308C18.126 32.8743 18.6014 32.9737 19.0829 33.0277C19.7267 33.0952 20.3653 33.2029 21.0038 33.3106C21.9687 33.4733 22.9336 33.636 23.9164 33.6602C24.352 33.671 24.7344 33.5754 24.8272 33.0794C24.9037 32.667 24.6118 32.5557 24.3261 32.4468L24.3258 32.4467C24.2869 32.4319 24.2481 32.4171 24.2104 32.4016C22.2595 31.8545 17.8084 31.4894 17.8084 31.4894ZM12.2684 16.6295C12.5961 16.6295 12.9297 16.59 13.003 16.1982C13.0835 15.7713 12.7744 15.5836 12.4279 15.4744C11.3835 15.143 10.3059 15.0833 9.22192 15.1408C9.04761 15.1438 8.88013 15.2092 8.74994 15.3251C8.61974 15.4411 8.53547 15.5999 8.51243 15.7727C8.46858 16.1451 8.73886 16.4283 9.11697 16.4807C9.70929 16.5649 11.8119 16.631 12.2684 16.6295ZM36.2214 9.96377C35.4537 9.94077 33.0399 12.0484 32.9723 12.7996C32.9363 13.205 33.1218 13.3747 33.5294 13.3452C33.9128 13.3164 34.2204 12.9878 34.5827 12.6007C34.7543 12.4173 34.9382 12.2208 35.1482 12.0369C35.1482 12.0369 35.8462 11.4748 36.4622 10.9673C36.6987 10.7725 36.8253 10.5166 36.721 10.2082C36.6441 9.98296 36.4333 9.97339 36.2324 9.96427L36.2214 9.96377ZM34.8521 20.2935C33.8148 20.2935 33.4388 20.4875 33.3727 20.7413C33.2799 21.0926 33.6192 21.1692 33.8359 21.2181L33.8507 21.2215C34.8528 21.4376 35.8606 21.6279 36.8741 21.7922C37.2249 21.8497 37.6562 21.7498 37.7044 21.3681C37.7482 21.0216 37.5606 20.7722 37.0776 20.5889C36.5945 20.4056 35.8929 20.2963 34.8521 20.2963V20.2935ZM17.1313 10.8458C16.9863 10.1242 16.7189 9.43276 16.3406 8.80141C16.1637 8.51387 15.887 8.3392 15.5498 8.49159C15.1703 8.66124 15.1042 9.01203 15.2623 9.35419C15.5549 9.99684 15.8827 10.6237 16.2176 11.2455C16.3384 11.4697 16.5289 11.7278 16.8301 11.5768C17.1313 11.4259 17.1313 11.2002 17.1313 10.8458ZM42.7571 31.2198C42.8419 31.2323 42.9431 31.242 43.0573 31.2529C43.7175 31.3159 44.8123 31.4204 45.6856 32.3563C46.3407 33.0703 46.8096 33.9349 47.0508 34.8734C47.292 35.8119 47.2982 36.7953 47.0687 37.7368C46.7567 39.4246 45.9566 39.8005 44.9539 39.9393C43.9849 40.0708 42.8843 39.4649 42.356 38.4678C41.9311 37.654 41.6975 36.7539 41.6731 35.8362L41.6682 35.6895L41.663 35.5323L41.6629 35.5293C41.6274 34.4352 41.592 33.3473 41.3403 32.2678C41.1785 31.5706 41.6867 31.1953 42.7571 31.2198ZM17.6273 42.0994C18.6214 42.9526 20.0792 43.0856 21.092 43.0856C22.1049 43.0856 23.0976 42.9526 23.9746 42.4207C25.2807 41.6314 25.3878 40.0593 24.1061 39.2722C22.3917 38.2184 19.9189 37.8187 17.9148 38.9926C16.6065 39.7603 16.4771 41.116 17.6273 42.0994ZM3.7149 35.0016C2.05007 34.9894 1.13355 33.5014 1.89552 32.0364C2.53385 30.8086 3.65236 30.3371 4.93117 30.0553C7.3824 29.5161 7.36228 30.5117 6.83609 32.219C6.2833 34.0161 5.23308 35.0131 3.7149 35.0016ZM41.6853 15.9804C42.5098 16.3341 43.3882 16.4541 44.2839 16.4383C45.2378 16.4405 45.9048 16.324 46.4591 16.0588C47.4295 15.5937 47.7738 14.9129 47.5524 13.8987C47.3943 13.177 46.5115 12.5099 45.6489 12.5961C44.07 12.7415 42.5773 13.3815 41.3834 14.4249C40.6789 15.0387 40.8004 15.5994 41.6853 15.9804ZM28.9468 6.3142C29.202 6.22506 29.4694 5.51844 29.4694 4.1239C29.4636 3.35402 29.1854 1.82218 28.6104 1.16588C27.9037 0.359349 26.4661 0.133635 25.7472 0.715174C25.1398 1.2047 25.0722 2.10469 25.7343 2.85228C26.5997 3.83415 27.412 4.86164 28.1676 5.93034C28.325 6.15246 28.6592 6.41411 28.9468 6.3142ZM34.699 0.149494C35.2963 0.101332 35.8728 0.256601 36.0454 0.965374C36.2215 1.69068 35.8009 2.17015 35.1827 2.45265C34.3561 2.83076 33.5201 3.19664 32.6668 3.50143C31.8135 3.80622 31.4189 3.40367 31.6051 2.50656C31.8926 1.10555 33.1333 0.143743 34.699 0.149494ZM4.09588 17.1356C4.08006 16.3096 3.0284 15.6404 1.71293 15.6196C0.698656 15.6037 0.00426123 16.0775 0.000667052 16.787C-0.0043648 17.6884 1.01494 18.592 2.06229 18.615C3.06147 18.6373 4.11025 17.8746 4.09588 17.1356ZM32.1996 42.903C32.1945 43.8267 31.3283 44.3069 30.5081 43.785C29.3645 43.0569 29.0187 41.8118 28.6859 40.6128C28.5536 40.1398 29.0338 40.0312 29.4313 40.0463C30.8819 40.0995 32.2067 41.4725 32.1996 42.903ZM7.276 38.6547C8.01281 38.664 8.493 38.0077 8.48725 37.0014C8.48365 36.2653 8.02575 35.5932 7.51682 35.5831C7.00788 35.573 6.2114 36.7505 6.25741 37.529C6.29335 38.1429 6.53919 38.6453 7.276 38.6547ZM8.03583 7.13727C7.67641 7.13727 6.21933 6.73472 6.19776 5.74776C6.1762 4.7608 7.23864 4.40497 7.8856 4.75217C8.53255 5.09937 9.18598 5.88578 9.20466 6.51117C9.22335 7.13655 8.39813 7.13727 8.03583 7.13727ZM43.8533 19.8233C44.2321 19.8672 45.0933 19.8506 45.2076 19.1174C45.3959 17.7567 44.0977 17.7775 43.3861 17.9242C42.6744 18.0708 42.3186 18.4475 42.6406 19.0405C42.9627 19.6335 43.4939 19.7816 43.8533 19.8233Z"
		fill="url(#paint0_linear)" />
	<defs>
		<linearGradient id="paint0_linear" x1="3.5" y1="3.49997" x2="43" y2="37.5" gradientUnits="userSpaceOnUse">
			<stop stop-color="#55DAFB" />
			<stop offset="1" stop-color="#55BEFB" />
		</linearGradient>
	</defs>
</svg>
