<svg width="32" height="96" viewBox="0 0 32 96" fill="none" xmlns="http://www.w3.org/2000/svg">
	<rect width="32" height="96" fill="white" />
	<path
		d="M26.2857 0.571429H5.71429C2.87396 0.571429 0.571429 2.87396 0.571429 5.71429V26.2857C0.571429 29.126 2.87396 31.4286 5.71429 31.4286H26.2857C29.126 31.4286 31.4286 29.126 31.4286 26.2857V5.71429C31.4286 2.87396 29.126 0.571429 26.2857 0.571429Z"
		stroke="#BDBDBD" />
	<path
		d="M12.3347 57.9266L4.90615 49.9573C4.45985 49.4784 4.45985 48.7022 4.90615 48.2233L6.52235 46.4894C6.96865 46.0105 7.69231 46.0105 8.13861 46.4894L13.1429 51.8578L23.8614 40.3591C24.3077 39.8803 25.0313 39.8803 25.4776 40.3591L27.0938 42.093C27.5401 42.5718 27.5401 43.3481 27.0938 43.827L13.951 57.9266C13.5047 58.4054 12.781 58.4054 12.3347 57.9266Z"
		fill="url(#paint0_linear)" />
	<path
		d="M26.2857 32.5714H5.71429C2.87396 32.5714 0.571429 34.874 0.571429 37.7143V58.2857C0.571429 61.126 2.87396 63.4286 5.71429 63.4286H26.2857C29.126 63.4286 31.4286 61.126 31.4286 58.2857V37.7143C31.4286 34.874 29.126 32.5714 26.2857 32.5714Z"
		stroke="#BDBDBD" />
	<path
		d="M26.1887 65H5.81132C3.1541 65 1 67.1541 1 69.8113V90.1887C1 92.8459 3.1541 95 5.81132 95H26.1887C28.8459 95 31 92.8459 31 90.1887V69.8113C31 67.1541 28.8459 65 26.1887 65Z"
		stroke="#828282" stroke-width="1.5" />
	<defs>
		<linearGradient id="paint0_linear" x1="4.57143" y1="49.1429" x2="27.4286" y2="49.1429"
			gradientUnits="userSpaceOnUse">
			<stop stop-color="#55DAFB" />
			<stop offset="1" stop-color="#55BEFB" />
		</linearGradient>
	</defs>
</svg>
