<svg width="64" height="35" viewBox="0 0 64 35" fill="none" xmlns="http://www.w3.org/2000/svg">
	<path
		d="M3.88237 13.4461C2.91196 12.8891 2.1319 12.0527 1.64391 11.0459C1.123 10.005 0.862541 8.78584 0.862541 7.38842C0.862541 5.991 1.123 4.77545 1.64391 3.74176C2.13429 2.73914 2.91401 1.90659 3.88237 1.35162C4.85327 0.792368 5.98664 0.51298 7.28246 0.513459C8.08475 0.507795 8.8826 0.633081 9.64455 0.884379C10.359 1.12065 11.0239 1.48613 11.6062 1.96264C11.7516 2.06589 11.8696 2.20309 11.9499 2.36231C12.0176 2.52522 12.0499 2.70065 12.0447 2.877C12.0529 3.13127 11.972 3.38041 11.8161 3.58146C11.7532 3.66959 11.6703 3.74158 11.5743 3.79155C11.4782 3.84153 11.3717 3.86806 11.2634 3.86899C10.9819 3.85863 10.71 3.76424 10.4827 3.59799C9.9364 3.19113 9.42842 2.90839 8.95878 2.74976C8.45523 2.58603 7.92837 2.50542 7.39891 2.51111C6.07769 2.51111 5.07755 2.92396 4.39849 3.74966C3.71943 4.57537 3.37966 5.78805 3.37918 7.3877C3.37918 9.00077 3.71895 10.2199 4.39849 11.0451C5.07803 11.8704 6.07817 12.2832 7.39891 12.2837C7.91427 12.2887 8.42665 12.2049 8.91349 12.0357C9.37738 11.8708 9.90117 11.5915 10.4849 11.1975C10.6066 11.1239 10.734 11.0602 10.8658 11.007C10.993 10.9564 11.1287 10.9306 11.2655 10.9309C11.3738 10.9318 11.4803 10.9583 11.5764 11.0083C11.6725 11.0583 11.7554 11.1303 11.8183 11.2184C11.9742 11.4194 12.055 11.6686 12.0469 11.9228C12.0501 12.0953 12.0178 12.2666 11.952 12.426C11.8742 12.5896 11.756 12.7307 11.6084 12.8358C11.0262 13.3126 10.3613 13.6781 9.6467 13.914C8.88488 14.1659 8.08697 14.2914 7.28461 14.2857C5.98783 14.2842 4.85375 14.0044 3.88237 13.4461Z"
		fill="#525762" />
	<path
		d="M15.4449 13.674C14.7336 13.2868 14.1536 12.6967 13.7786 11.9789C13.3847 11.2424 13.1877 10.385 13.1877 9.40694C13.1877 8.42884 13.3847 7.57487 13.7786 6.84501C14.1556 6.13105 14.7353 5.54456 15.4449 5.15933C16.1637 4.76541 16.9987 4.56845 17.95 4.56845C18.9012 4.56845 19.7363 4.76541 20.4551 5.15933C21.1619 5.5439 21.7376 6.13091 22.1084 6.84501C22.4956 7.57535 22.6892 8.42932 22.6892 9.40694C22.6892 10.3846 22.4956 11.2419 22.1084 11.9789C21.7397 12.6969 21.1637 13.2875 20.4551 13.674C19.7363 14.0679 18.9012 14.2648 17.95 14.2648C16.9987 14.2648 16.1637 14.0679 15.4449 13.674ZM19.7025 11.6547C20.1084 11.1472 20.3116 10.398 20.3121 9.40694C20.3121 8.42932 20.1089 7.68317 19.7025 7.16848C19.2961 6.6538 18.7119 6.39669 17.95 6.39717C17.188 6.39717 16.6007 6.65428 16.1881 7.16848C15.7755 7.68269 15.5692 8.42884 15.5692 9.40694C15.5692 10.3975 15.7722 11.1468 16.1781 11.6547C16.584 12.1627 17.1681 12.4167 17.9306 12.4167C18.7055 12.4167 19.2961 12.1627 19.7025 11.6547Z"
		fill="#525762" />
	<path
		d="M32.789 4.91134C33.0051 5.11501 33.1132 5.38817 33.1132 5.73082V13.1219C33.1188 13.2714 33.0918 13.4204 33.0343 13.5586C32.9767 13.6967 32.8898 13.8207 32.7796 13.922C32.5578 14.1247 32.2688 14.2263 31.9127 14.2268C31.5701 14.2268 31.2972 14.1309 31.094 13.9392C30.8908 13.7475 30.7892 13.4873 30.7892 13.1586V12.682C30.5122 13.1749 30.1032 13.5806 29.6081 13.8537C29.0935 14.1312 28.5164 14.2723 27.9318 14.2634C25.6459 14.2634 24.5029 12.9808 24.5029 10.4155V5.73082C24.5029 5.38769 24.6107 5.11453 24.8264 4.91134C25.0421 4.70815 25.3279 4.60656 25.684 4.60656C26.052 4.60656 26.3441 4.70815 26.5602 4.91134C26.7764 5.11453 26.8842 5.38769 26.8837 5.73082V10.4356C26.8837 11.096 27.0172 11.585 27.2841 11.9028C27.551 12.2205 27.9701 12.3791 28.5414 12.3786C29.2013 12.3786 29.7315 12.1596 30.1322 11.7216C30.5328 11.2836 30.7326 10.7025 30.7317 9.97843V5.73082C30.7317 5.38769 30.8397 5.11453 31.0559 4.91134C31.272 4.70815 31.5571 4.60584 31.9113 4.6044C32.2812 4.6044 32.5738 4.70671 32.789 4.91134Z"
		fill="#525762" />
	<path
		d="M41.4754 4.82003C41.6671 4.98488 41.7629 5.2324 41.7629 5.56258C41.7629 5.90571 41.6802 6.1597 41.5149 6.32455C41.3503 6.48988 41.0513 6.59771 40.62 6.64875L40.0449 6.70554C39.2949 6.78173 38.7457 7.03572 38.3973 7.4675C38.0489 7.89928 37.8757 8.43793 37.8776 9.08345V13.0866C37.8776 13.4547 37.7633 13.7372 37.5347 13.9342C37.2949 14.1347 36.9896 14.2399 36.6771 14.2296C36.3676 14.241 36.065 14.1356 35.8296 13.9342C35.6078 13.7372 35.4966 13.4547 35.4961 13.0866V5.71138C35.4961 5.35628 35.6073 5.08336 35.8296 4.89263C36.0611 4.69804 36.3562 4.59567 36.6585 4.60509C36.9882 4.60509 37.2549 4.69711 37.4585 4.88113C37.6622 5.06515 37.7638 5.32872 37.7633 5.67185V6.43382C37.9825 5.90272 38.3587 5.45127 38.8416 5.13991C39.3189 4.83489 39.8668 4.65789 40.4323 4.62594L40.699 4.60653C41.0259 4.58161 41.2847 4.65278 41.4754 4.82003Z"
		fill="#525762" />
	<path
		d="M42.6219 13.4461C42.2151 13.2065 42.0116 12.8636 42.0116 12.4174C42.0016 12.1921 42.0766 11.9713 42.2215 11.7985C42.2841 11.7231 42.3627 11.6626 42.4516 11.6214C42.5405 11.5803 42.6375 11.5595 42.7355 11.5606C42.9516 11.5606 43.2502 11.6622 43.6312 11.8654C43.9915 12.0379 44.3639 12.1842 44.7454 12.3031C45.0808 12.4052 45.5095 12.456 46.0314 12.4555C46.5647 12.4555 46.9807 12.3666 47.2792 12.1888C47.5778 12.011 47.7268 11.7635 47.7264 11.4463C47.7362 11.2577 47.6714 11.0728 47.5459 10.9316C47.4252 10.8051 47.2095 10.6877 46.899 10.5794C46.4329 10.4304 45.9593 10.3063 45.48 10.2077C44.349 9.97913 43.5394 9.65541 43.0511 9.23657C42.5627 8.81772 42.3181 8.23978 42.3171 7.50273C42.313 6.95742 42.4869 6.42564 42.8124 5.98814C43.1638 5.52119 43.6361 5.15906 44.1782 4.9408C44.8014 4.6844 45.4704 4.55771 46.1442 4.56844C46.6652 4.56698 47.1841 4.63417 47.6875 4.76828C48.1595 4.89174 48.6094 5.08794 49.021 5.34981C49.4274 5.60332 49.6303 5.93878 49.6298 6.35619C49.6376 6.58698 49.5635 6.81309 49.4206 6.99451C49.3609 7.0744 49.2833 7.13926 49.1941 7.18393C49.1049 7.2286 49.0065 7.25186 48.9067 7.25186C48.7656 7.25166 48.6261 7.2223 48.4969 7.1656C48.3248 7.08895 48.1569 7.00329 47.9938 6.90897C47.686 6.7447 47.3678 6.60063 47.0413 6.47767C46.7218 6.3743 46.3872 6.32569 46.0515 6.3339C45.5814 6.3339 45.2097 6.42975 44.9366 6.62144C44.8072 6.70578 44.7017 6.82192 44.6301 6.95874C44.5585 7.09555 44.5232 7.24845 44.5276 7.40281C44.5227 7.55058 44.5595 7.69674 44.6335 7.8247C44.7076 7.95265 44.8161 8.05727 44.9466 8.12668C45.2255 8.29154 45.7651 8.45663 46.5654 8.62196C47.4161 8.79975 48.0827 9.00294 48.5652 9.23153C49.0478 9.46012 49.3941 9.74574 49.604 10.0884C49.8134 10.431 49.9181 10.8693 49.9181 11.4031C49.9181 12.2657 49.5587 12.9577 48.8398 13.4791C48.121 14.0005 47.1652 14.261 45.9724 14.2605C44.5879 14.2634 43.4711 13.9919 42.6219 13.4461Z"
		fill="#525762" />
	<path
		d="M59.6389 11.8071C59.7717 11.9724 59.8383 12.1948 59.8388 12.4742C59.8388 12.8671 59.604 13.1973 59.1343 13.4647C58.6712 13.7182 58.1784 13.9133 57.6672 14.0456C57.1581 14.1852 56.633 14.2577 56.1051 14.2612C54.6066 14.2612 53.4193 13.8299 52.5433 12.9673C51.6673 12.1047 51.229 10.9237 51.2286 9.42416C51.2286 8.47194 51.4202 7.62731 51.8036 6.89026C52.1637 6.1777 52.7211 5.58379 53.4095 5.17943C54.102 4.77305 54.8862 4.56985 55.7623 4.56985C56.6004 4.56985 57.3308 4.75412 57.9533 5.12264C58.5769 5.49221 59.0798 6.03484 59.401 6.68467C59.7437 7.35559 59.915 8.14918 59.915 9.06546C59.915 9.61178 59.6737 9.88493 59.1911 9.88493H53.572C53.6482 10.7614 53.8957 11.4058 54.3145 11.8179C54.7334 12.23 55.3429 12.4373 56.1432 12.4397C56.5084 12.4459 56.8723 12.3944 57.2215 12.2873C57.5811 12.1662 57.934 12.0263 58.2789 11.8682C58.6623 11.6645 58.9417 11.5629 59.1171 11.5634C59.217 11.561 59.3161 11.5817 59.4066 11.624C59.4972 11.6663 59.5767 11.7289 59.6389 11.8071ZM54.2671 6.85432C53.8794 7.26118 53.6477 7.84535 53.572 8.60684H57.8771C57.8512 7.83289 57.6595 7.24561 57.302 6.84497C56.9445 6.44434 56.4492 6.24427 55.8162 6.24475C55.1711 6.24475 54.6548 6.44794 54.2671 6.85432Z"
		fill="#525762" />
	<path
		d="M1.58641 30.9138C1.3837 30.7111 1.2821 30.4317 1.28162 30.0757V18.9143C1.28162 18.5462 1.3928 18.251 1.61516 18.0287C1.83752 17.8063 2.13272 17.6951 2.50077 17.6951C2.88175 17.6951 3.18343 17.8063 3.40579 18.0287C3.62815 18.251 3.73933 18.5462 3.73933 18.9143V29.2008H9.0925C9.85447 29.2008 10.2355 29.5375 10.2355 30.2108C10.2355 30.8841 9.85447 31.2196 9.0925 31.2172H2.44398C2.07546 31.2191 1.7896 31.118 1.58641 30.9138Z"
		fill="#525762" />
	<path
		d="M18.474 22.6385C19.1023 23.2802 19.4164 24.255 19.4164 25.5628V30.2107C19.4164 30.5534 19.3148 30.8232 19.1116 31.0202C18.9084 31.2171 18.629 31.3156 18.2735 31.3156C18.125 31.3213 17.977 31.2973 17.838 31.2449C17.699 31.1926 17.5718 31.113 17.4641 31.0108C17.3589 30.9066 17.2767 30.7817 17.2226 30.6439C17.1685 30.5062 17.1438 30.3586 17.1499 30.2107V29.7917C16.9423 30.2774 16.5852 30.6843 16.1306 30.9533C15.6432 31.2392 15.0861 31.3843 14.5211 31.3724C13.9338 31.3806 13.3528 31.25 12.8254 30.9914C12.3386 30.7565 11.9241 30.3947 11.6257 29.9441C11.3344 29.5037 11.1816 28.9862 11.1872 28.4582C11.1872 27.7725 11.3619 27.2326 11.7112 26.8387C12.0606 26.4448 12.6289 26.1592 13.4163 25.9818C14.2037 25.804 15.2893 25.7151 16.6733 25.7151H17.1499V25.2767C17.1499 24.6537 17.0165 24.1998 16.7495 23.9152C16.4826 23.6305 16.0513 23.4868 15.4556 23.4839C15.0754 23.4859 14.6973 23.5405 14.3321 23.6463C13.9487 23.7542 13.4978 23.9097 12.9792 24.1129C12.6495 24.2782 12.4083 24.3606 12.2554 24.3601C12.1493 24.3633 12.0438 24.3427 11.9467 24.3C11.8496 24.2572 11.7632 24.1933 11.694 24.1129C11.5432 23.9321 11.4661 23.701 11.4783 23.4659C11.4736 23.2664 11.53 23.0702 11.6401 22.9038C11.7479 22.7447 11.9288 22.5954 12.1828 22.456C12.6846 22.1943 13.2198 22.0022 13.7736 21.8852C14.3702 21.7473 14.9805 21.6769 15.5929 21.6753C16.8873 21.6763 17.8477 21.9973 18.474 22.6385ZM16.5497 29.0204C16.9499 28.5948 17.1499 28.0454 17.1499 27.3721V26.9724H16.807C15.9559 26.9724 15.2956 27.0105 14.8259 27.0867C14.3563 27.1629 14.0208 27.2961 13.8196 27.4864C13.6164 27.6781 13.5148 27.9385 13.5148 28.2677C13.5097 28.4557 13.5456 28.6426 13.6201 28.8153C13.6946 28.988 13.8058 29.1423 13.9461 29.2676C14.2347 29.5292 14.6134 29.6691 15.0028 29.658C15.6339 29.658 16.1495 29.4454 16.5497 29.0204Z"
		fill="#525762" />
	<path
		d="M30.4843 22.0197C30.7 22.2231 30.8078 22.4955 30.8078 22.8391V30.3632C30.8078 31.8229 30.4004 32.9277 29.5858 33.6777C28.7711 34.4277 27.5711 34.8022 25.9858 34.8012C24.6013 34.8012 23.4457 34.541 22.5189 34.0206C22.0488 33.7407 21.8137 33.4041 21.8137 33.0106C21.8137 32.7317 21.8806 32.5074 22.0135 32.3443C22.0753 32.2648 22.1549 32.2009 22.246 32.158C22.337 32.115 22.4369 32.0941 22.5376 32.097C22.681 32.1025 22.8226 32.1314 22.9567 32.1825C23.121 32.2396 23.2926 32.3062 23.4713 32.3824C23.8717 32.5528 24.2819 32.699 24.6998 32.8201C25.1069 32.9277 25.5268 32.979 25.9477 32.9725C27.6111 32.9725 28.4428 32.1598 28.4428 30.5342V29.3122C28.1668 29.8295 27.7408 30.2513 27.2208 30.522C26.6568 30.8162 26.0281 30.9645 25.3921 30.9533C24.5774 30.9533 23.8566 30.7597 23.2298 30.3725C22.5951 29.9784 22.0838 29.414 21.754 28.7436C21.3984 28.0459 21.2207 27.2396 21.2207 26.3248C21.2207 25.4099 21.3951 24.6003 21.744 23.8958C22.0681 23.2189 22.5808 22.6501 23.2205 22.2576C23.8759 21.865 24.6282 21.6638 25.3921 21.6768C26.0281 21.6659 26.6567 21.8142 27.2208 22.1081C27.7405 22.3792 28.1664 22.8009 28.4428 23.3179V22.8197C28.4369 22.671 28.4627 22.5227 28.5186 22.3847C28.5745 22.2468 28.6592 22.1223 28.767 22.0197C28.9827 21.8169 29.2683 21.7154 29.6239 21.7149C29.9794 21.7144 30.2663 21.816 30.4843 22.0197ZM27.8074 28.3626C28.2329 27.8681 28.4457 27.1888 28.4457 26.3248C28.4457 25.4487 28.2329 24.763 27.8074 24.2674C27.3818 23.7719 26.7883 23.5244 26.0268 23.5249C25.2768 23.5249 24.6862 23.7724 24.2549 24.2674C23.8236 24.7625 23.6079 25.4483 23.6079 26.3248C23.6079 27.1874 23.8236 27.8667 24.2549 28.3626C24.6862 28.8586 25.2768 29.1064 26.0268 29.1059C26.7869 29.1059 27.3804 28.8582 27.8074 28.3626Z"
		fill="#525762" />
	<path
		d="M34.9131 30.7822C34.2015 30.395 33.6211 29.8047 33.2461 29.0865C32.8522 28.3504 32.6555 27.4933 32.656 26.5152C32.6565 25.5371 32.8532 24.6831 33.2461 23.9533C33.6234 23.2391 34.2034 22.6524 34.9131 22.2669C35.632 21.8735 36.467 21.6767 37.4183 21.6767C38.3695 21.6767 39.2044 21.8735 39.9227 22.2669C40.6309 22.6513 41.2082 23.2386 41.5804 23.9533C41.9681 24.6836 42.1617 25.5376 42.1612 26.5152C42.1607 27.4928 41.9671 28.3499 41.5804 29.0865C41.2106 29.8053 40.633 30.3962 39.9227 30.7822C39.2039 31.1761 38.3691 31.3729 37.4183 31.3724C36.4675 31.3719 35.6324 31.1752 34.9131 30.7822ZM39.1715 28.763C39.5779 28.2555 39.7811 27.5062 39.7811 26.5152C39.7811 25.5376 39.5779 24.7914 39.1715 24.2768C38.7651 23.7621 38.181 23.505 37.419 23.5054C36.657 23.5054 36.0695 23.7625 35.6564 24.2768C35.2433 24.791 35.037 25.5371 35.0375 26.5152C35.0375 27.5058 35.2407 28.255 35.6471 28.763C36.0534 29.271 36.6376 29.525 37.3996 29.525C38.174 29.525 38.7647 29.271 39.1715 28.763Z"
		fill="#525762" />
	<path
		d="M45.7711 30.7822C45.0593 30.3952 44.4789 29.8048 44.1042 29.0865C43.7102 28.3504 43.5135 27.4933 43.514 26.5152C43.5145 25.5371 43.7112 24.6831 44.1042 23.9533C44.4815 23.2391 45.0614 22.6524 45.7711 22.2669C46.49 21.8735 47.325 21.6767 48.2762 21.6767C49.2275 21.6767 50.0623 21.8735 50.7807 22.2669C51.4889 22.6513 52.0661 23.2386 52.4383 23.9533C52.825 24.6836 53.0186 25.5376 53.0191 26.5152C53.0196 27.4928 52.826 28.3499 52.4383 29.0865C52.0685 29.8053 51.4909 30.3962 50.7807 30.7822C50.0618 31.1761 49.227 31.3729 48.2762 31.3724C47.3255 31.3719 46.4904 31.1752 45.7711 30.7822ZM50.0259 28.763C50.4323 28.2555 50.6352 27.5062 50.6347 26.5152C50.6347 25.5376 50.4318 24.7914 50.0259 24.2768C49.62 23.7621 49.0358 23.505 48.2734 23.5054C47.5105 23.5054 46.9229 23.7625 46.5108 24.2768C46.0987 24.791 45.8924 25.5371 45.8919 26.5152C45.8919 27.5058 46.0951 28.255 46.5015 28.763C46.9078 29.271 47.492 29.525 48.254 29.525C49.0303 29.525 49.6209 29.271 50.0259 28.763Z"
		fill="#525762" />
	<path
		d="M62.7911 22.6292C63.3374 23.2646 63.6106 24.2231 63.6106 25.5045V30.1949C63.6106 30.55 63.5059 30.8292 63.2965 31.0324C63.087 31.2356 62.7981 31.3372 62.4295 31.3372C62.061 31.3372 61.7689 31.2356 61.5533 31.0324C61.3376 30.8292 61.2295 30.55 61.2291 30.1949V25.639C61.2291 24.9148 61.0927 24.3877 60.82 24.0575C60.5474 23.7273 60.1187 23.562 59.534 23.5615C58.8483 23.5615 58.2991 23.7772 57.8864 24.2085C57.4738 24.6398 57.2673 25.2175 57.2668 25.9416V30.1949C57.2668 30.55 57.159 30.8292 56.9433 31.0324C56.7277 31.2356 56.4346 31.3362 56.0642 31.3343C55.6954 31.3343 55.4072 31.2329 55.1973 31.0295C54.9873 30.8261 54.8831 30.5472 54.8831 30.1921V22.8197C54.8772 22.671 54.903 22.5228 54.9588 22.3848C55.0145 22.2469 55.099 22.1224 55.2066 22.0196C55.4232 21.8169 55.7153 21.7153 56.0829 21.7148C56.3813 21.703 56.6723 21.8091 56.893 22.0103C56.9971 22.1092 57.079 22.2291 57.1332 22.3621C57.1873 22.4951 57.2125 22.6381 57.2071 22.7816V23.2941C57.5134 22.784 57.9551 22.3687 58.4831 22.0944C59.0431 21.8089 59.6646 21.665 60.2931 21.6753C61.4121 21.6762 62.2448 21.9942 62.7911 22.6292Z"
		fill="#525762" />
</svg>
